<svg xmlns="http://www.w3.org/2000/svg" version="1.1" xmlns:xlink="http://www.w3.org/1999/xlink" xmlns:svgjs="http://svgjs.dev/svgjs" width="1500" height="1500" viewBox="0 0 1500 1500"><rect width="1500" height="1500" fill="#c8f7dd"></rect><g transform="matrix(0.6666666666666666,0,0,0.6666666666666666,250.00057626376372,187.66666666666674)"><svg viewBox="0 0 320 360" data-background-color="#c8f7dd" preserveAspectRatio="xMidYMid meet" height="1687" width="1500" xmlns="http://www.w3.org/2000/svg" xmlns:xlink="http://www.w3.org/1999/xlink"><g id="tight-bounds" transform="matrix(1,0,0,1,0.00018440440442191175,0)"><svg viewBox="0 0 320 360" height="360" width="320"><g><svg></svg></g><g><svg viewBox="0 0 320 360" height="360" width="320"><g><path d="M294.684 112.125c-8.775-10.699-25.381-16.201-43-22.006-7.56-2.498-15.357-5.097-22.985-8.235-7.695-3.173-15.256-7.257-22.613-11.172-14.952-8.033-30.41-16.336-46.105-16.336-15.661 0-31.119 8.303-46.071 16.336-7.358 3.949-14.952 8.033-22.648 11.205-7.594 3.139-15.425 5.704-22.985 8.236-17.618 5.839-34.224 11.341-42.999 22.006-11.712 14.277-11.442 35.439-11.172 57.817 0.034 3.375 0.068 6.717 0.067 10.024 0 3.308-0.034 6.649-0.101 10.024-0.27 22.411-0.54 43.54 11.172 57.851 8.775 10.666 25.381 16.167 42.966 22.006 7.56 2.498 15.357 5.097 23.019 8.235 7.695 3.173 15.256 7.223 22.579 11.172 14.986 8.067 30.444 16.37 46.105 16.37 15.695 0 31.153-8.303 46.105-16.336 7.358-3.949 14.918-8.033 22.614-11.172 7.594-3.139 15.357-5.704 22.884-8.202 17.72-5.873 34.326-11.374 43.101-22.039 11.712-14.277 11.442-35.439 11.171-57.817-0.034-3.409-0.101-6.75-0.101-10.058 0-3.308 0.034-6.649 0.101-9.991 0.371-22.479 0.641-43.641-11.104-57.918zM305.552 103.215c-15.728-19.171-45.801-23.727-71.486-34.326-22.985-9.45-46.375-28.588-74.051-28.587-27.676 0-51.066 19.137-74.052 28.587-25.719 10.598-55.758 15.155-71.486 34.326-17.078 20.791-14.311 50.121-14.311 76.785 0 26.63-2.768 55.994 14.277 76.785 15.728 19.171 45.801 23.727 71.487 34.326 22.985 9.484 46.375 28.588 74.051 28.587 27.676 0 51.066-19.103 74.051-28.587 25.719-10.598 55.758-15.155 71.486-34.326 17.045-20.791 14.277-50.121 14.277-76.785 0.068-26.664 2.835-55.994-14.243-76.785zM309.872 189.923c0.304 23.221 0.574 45.059-12.083 60.483-9.518 11.577-26.664 17.281-44.822 23.289-7.56 2.498-15.29 5.063-22.715 8.134-7.493 3.071-14.952 7.088-22.175 10.969-15.458 8.303-31.355 16.842-48.062 16.842-16.707 0-32.604-8.539-47.995-16.808-7.257-3.915-14.75-7.932-22.243-11.003-7.527-3.105-15.256-5.67-22.748-8.134-18.192-6.008-35.338-11.712-44.823-23.289-12.623-15.391-12.353-37.262-12.083-60.415 0.034-3.375 0.101-6.683 0.101-9.991 0-3.308-0.034-6.615-0.067-9.991-0.304-23.154-0.574-45.025 12.083-60.415 9.518-11.577 26.664-17.247 44.822-23.289 7.527-2.498 15.256-5.063 22.749-8.134 7.493-3.105 14.986-7.122 22.242-11.003 15.391-8.269 31.322-16.842 47.995-16.842 16.673 0 32.604 8.539 47.995 16.808 7.257 3.915 14.75 7.932 22.243 11.003 7.493 3.105 15.256 5.637 22.715 8.134 18.158 6.008 35.338 11.712 44.822 23.289 12.657 15.425 12.387 37.262 12.083 60.416-0.034 3.409-0.101 6.717-0.101 9.99 0 3.308 0.034 6.615 0.067 9.957z" fill="#0074d9" fill-rule="nonzero" stroke="none" stroke-width="1" stroke-linecap="butt" stroke-linejoin="miter" stroke-miterlimit="10" stroke-dasharray="" stroke-dashoffset="0" font-family="none" font-weight="none" font-size="none" text-anchor="none" style="mix-blend-mode: normal" data-fill-palette-color="tertiary"></path></g><g transform="matrix(1,0,0,1,103.71764705882353,108)"><svg viewBox="0 0 112.56470588235294 144" height="144" width="112.56470588235294"><g><svg viewBox="0 0 112.56470588235294 144" height="144" width="112.56470588235294"><g><svg viewBox="0 0 112.56470588235294 144" height="144" width="112.56470588235294"><g id="textblocktransform"><svg viewBox="0 0 112.56470588235294 144" height="144" width="112.56470588235294" id="textblock"><g><svg viewBox="0 0 112.56470588235294 144" height="144" width="112.56470588235294"><g transform="matrix(1,0,0,1,0,0)"><svg width="112.56470588235294" viewBox="2.25 -36.57 29.2 37.35" height="144" data-palette-color="#ffffff"><path d="M2.25-0.88L2.25-0.88 2.25-1.81Q2.25-5.98 2.34-14.14 2.44-22.29 2.44-26.46L2.44-26.46 2.44-36.57 30.86-36.57 30.86-28.56Q30.86-28.49 30.86-28.2 30.86-27.91 30.86-27.81 30.86-27.71 30.83-27.45 30.81-27.2 30.75-27.1 30.69-27 30.58-26.82 30.47-26.64 30.32-26.56 30.18-26.49 29.93-26.43 29.69-26.37 29.39-26.37L29.39-26.37 28.71-26.37Q22.39-26.37 17.19-26.56L17.19-26.56Q17.14-26.17 17.03-25.35 16.92-24.54 16.86-23.91 16.8-23.29 16.8-22.71L16.8-22.71 28.42-22.71Q29.15-22.71 29.39-22.51 29.64-22.31 29.64-21.88L29.64-21.88Q29.64-21.75 29.61-21.48 29.59-21.22 29.59-21.09L29.59-21.09Q29.59-19.92 29.66-17.63 29.74-15.33 29.74-14.16L29.74-14.16Q29.66-13.67 29.35-13.67L29.35-13.67Q29.2-13.67 29.1-13.77L29.1-13.77Q21.39-13.38 17.68-13.38L17.68-13.38 17.04-13.38 17.04-9.86Q19.21-9.86 23.33-10.06 27.44-10.25 29.49-10.25L29.49-10.25Q31.1-10.25 31.35-9.57L31.35-9.57 31.35-7.71Q31.35-6.54 31.4-4.25 31.45-1.95 31.45-0.78L31.45-0.78Q31.45 0.44 30.47 0.44L30.47 0.44Q29.2 0.44 26.56 0.42 23.93 0.39 22.56 0.39L22.56 0.39Q19.04 0.39 12.5 0.57 5.96 0.76 3.03 0.78L3.03 0.78 2.34 0Q2.25-0.68 2.25-0.88Z" opacity="1" transform="matrix(1,0,0,1,0,0)" fill="#ffffff" class="wordmark-text-0" data-fill-palette-color="quaternary" id="text-0"></path></svg></g></svg></g></svg></g></svg></g></svg></g></svg></g></svg></g><defs></defs></svg><rect width="320" height="360" fill="none" stroke="none" visibility="hidden"></rect></g></svg></g></svg>